<svg xmlns="http://www.w3.org/2000/svg" viewBox="0 0 128 128">
  <path fill="#3178C6" d="M1.5 1.5h125v125H1.5z"/>
  <path fill="#FFF" d="M72.1 98.4c-6.7 0-12.8-2.3-16.7-6.2l5.8-7.5c3.2 3.1 7.8 5 11.8 5 5.5 0 8.3-2.3 8.3-5.6 0-3.9-3.7-5-9.6-7.5-7.8-3.1-13-7.5-13-15.1 0-8.5 6.6-14.7 16.5-14.7 5.7 0 11.2 1.8 14.7 4.8l-5.3 7.8c-2.9-2.3-6.6-3.7-10-3.7-4.1 0-7.1 2.2-7.1 5.3 0 3.8 3.5 4.8 9.2 7.1 8.2 3.2 13.5 7.6 13.5 15.6 0 9.1-7.1 14.7-17.1 14.7zM28.3 48.7h29v10.4H42.8v38.9H32.4V59.1H28.3V48.7z"/>
</svg>